<?xml version="1.0" encoding="utf-8"?>
<!-- Generator: Adobe Illustrator 16.0.0, SVG Export Plug-In . SVG Version: 6.00 Build 0)  -->
<!DOCTYPE svg PUBLIC "-//W3C//DTD SVG 1.1//EN" "http://www.w3.org/Graphics/SVG/1.1/DTD/svg11.dtd">
<svg version="1.1" id="Calque_1" xmlns="http://www.w3.org/2000/svg" xmlns:xlink="http://www.w3.org/1999/xlink" x="0px" y="0px"
	 width="595.385px" height="626.946px" viewBox="0.154 0 595.385 626.946" enable-background="new 0.154 0 595.385 626.946"
	 xml:space="preserve">
<g>
	<rect x="164.232" y="205.046" fill="#FFFFFF" width="52.882" height="26.44"/>
	<rect x="271.457" y="205.046" fill="#FFFFFF" width="52.882" height="26.44"/>
	<rect x="378.579" y="205.046" fill="#FFFFFF" width="52.881" height="26.44"/>
	<rect x="164.232" y="284.368" fill="#FFFFFF" width="52.882" height="26.441"/>
	<rect x="271.457" y="284.368" fill="#FFFFFF" width="52.882" height="26.441"/>
	<rect x="378.579" y="284.368" fill="#FFFFFF" width="52.881" height="26.441"/>
	<rect x="164.232" y="365.048" fill="#FFFFFF" width="52.882" height="26.441"/>
	<rect x="271.457" y="365.048" fill="#FFFFFF" width="52.882" height="26.441"/>
	<rect x="378.579" y="365.048" fill="#FFFFFF" width="52.881" height="26.441"/>
	<rect x="164.232" y="445.729" fill="#FFFFFF" width="52.882" height="26.441"/>
	<rect x="271.457" y="445.729" fill="#FFFFFF" width="52.882" height="26.441"/>
	<rect x="378.579" y="445.729" fill="#FFFFFF" width="52.881" height="26.441"/>
	<path fill="#FFFFFF" d="M595.538,600.506h-72.842V140.25L72.996,0v600.506H0.154v26.44h72.843l0,0h449.7l0,0h72.842V600.506z
		 M99.437,35.742l396.818,124.261v440.503H311.067v-66.153h-26.44v66.153H99.437V35.742z"/>
</g>
</svg>
