<?xml version="1.0" encoding="utf-8"?>
<!-- Generator: Adobe Illustrator 16.0.0, SVG Export Plug-In . SVG Version: 6.00 Build 0)  -->
<!DOCTYPE svg PUBLIC "-//W3C//DTD SVG 1.1//EN" "http://www.w3.org/Graphics/SVG/1.1/DTD/svg11.dtd">
<svg version="1.1" id="Layer_1" xmlns="http://www.w3.org/2000/svg" xmlns:xlink="http://www.w3.org/1999/xlink" x="0px" y="0px"
	 width="595.279px" height="227.198px" viewBox="0 307.346 595.279 227.198" enable-background="new 0 307.346 595.279 227.198"
	 xml:space="preserve">
<g enable-background="new    ">
	<path fill="#FFFFFF" d="M117.568,369.652l0.894-2.778h2.877c8.632,0,11.509-0.397,14.386-0.596l-10.417,39.388l0.198,0.198
		c3.075-2.579,7.144-4.861,11.807-4.861c6.15,0,15.874,4.267,15.874,18.454c0,12.501-10.22,32.244-29.07,32.244
		c-7.143,0-15.477-4.465-15.477-12.897c0-3.274,1.289-6.846,2.083-9.922l15.18-59.23H117.568L117.568,369.652z M138.601,435.331
		c5.259-12.601,5.755-20.141,5.755-23.018c0-4.961-2.877-8.83-8.036-8.83c-4.763,0-11.311,2.282-14.783,16.271
		c-2.877,11.211-4.861,18.354-4.861,21.628c0,3.373,2.48,7.938,8.532,7.938C132.946,449.32,136.022,441.681,138.601,435.331z"/>
	<path fill="#FFFFFF" d="M163.206,405.071l0.893-2.778h2.282c3.373,0,11.707-0.694,16.271-1.19l-8.73,36.113
		c-0.396,1.687-1.488,4.465-1.488,6.647c0,3.671,3.373,4.267,4.763,4.267c7.44,0,15.278-8.434,18.155-18.95l6.945-26.887h8.632
		l-5.357,20.438c-1.29,5.457-5.061,18.95-5.061,20.736c0,2.083,0.694,4.167,3.175,4.167c5.953,0,9.822-9.822,11.707-14.684
		l2.183,0.694c-2.679,8.234-7.54,18.156-17.163,18.156c-6.647,0-8.731-4.961-7.739-10.616l-0.396-0.198
		c-3.572,5.754-10.715,10.814-17.76,10.814c-5.258,0-10.317-1.984-10.317-8.434c0-1.19,1.488-5.953,2.281-9.723l6.647-28.573
		H163.206z"/>
	<path fill="#FFFFFF" d="M249.918,433.743c-3.373,10.616-9.127,17.958-18.255,17.958c-3.771,0-7.64-1.984-7.64-6.35
		c0-1.588,0.694-4.861,1.19-6.846l8.731-33.534h-9.624l0.893-2.778h2.282c3.373,0,11.707-0.694,16.271-1.19l-10.517,39.785
		c-0.396,1.488-1.091,3.175-1.091,4.365c0,1.587,1.984,2.281,3.373,2.281c4.961,0,9.524-8.135,12.005-14.584L249.918,433.743z
		 M238.509,376.498c0-3.274,2.381-5.953,5.556-5.953s5.557,2.679,5.557,5.953c0,3.373-2.382,5.854-5.557,5.854
		S238.509,379.871,238.509,376.498z"/>
	<path fill="#FFFFFF" d="M265.495,369.652l0.893-2.778h4.663c8.632,0,11.509-0.397,14.386-0.596l-20.041,74.51
		c-0.396,1.488-1.092,3.175-1.092,4.365c0,1.587,1.984,2.281,3.374,2.281c4.96,0,9.524-8.135,12.997-15.874l2.281,0.894
		c-4.365,11.707-10.715,19.347-19.247,19.347c-3.771,0-7.64-1.984-7.64-6.35c0-1.588,0.694-4.862,1.19-6.846l18.156-68.954H265.495z
		"/>
	<path fill="#FFFFFF" d="M344.865,432.752c-3.075,8.532-8.136,18.949-18.156,18.949c-4.167,0-7.044-3.571-7.144-7.441h-0.198
		c-3.075,4.366-8.532,7.441-13.988,7.441c-10.22,0-15.875-9.227-15.875-16.866c0-14.684,13.593-33.832,28.573-33.832
		c4.366,0,8.037,1.984,10.716,5.357l9.723-36.708h-10.12l0.894-2.778h4.663c8.631,0,11.509-0.397,14.386-0.596l-20.537,76.494
		c-0.198,1.091-0.397,1.687-0.397,1.785c0,1.588,1.786,2.778,3.076,2.778c5.06,0,10.119-11.509,11.807-15.576L344.865,432.752z
		 M298.632,440.192c0,5.06,3.373,9.128,8.433,9.128c5.755,0,10.418-4.365,15.081-18.752c1.488-4.365,4.365-13.89,4.365-18.751
		s-2.579-8.433-7.64-8.433c-9.524,0-13.988,12.401-16.667,20.041C300.616,428.386,298.632,434.935,298.632,440.192z"/>
	<path fill="#FFFFFF" d="M378.3,433.743c-3.373,10.616-9.127,17.958-18.255,17.958c-3.771,0-7.64-1.984-7.64-6.35
		c0-1.588,0.694-4.861,1.19-6.846l8.731-33.534h-9.624l0.893-2.778h2.282c3.373,0,11.707-0.694,16.271-1.19l-10.517,39.785
		c-0.396,1.488-1.091,3.175-1.091,4.365c0,1.587,1.984,2.281,3.373,2.281c4.961,0,9.524-8.135,12.005-14.584L378.3,433.743z
		 M366.891,376.498c0-3.274,2.48-5.953,5.556-5.953c3.076,0,5.557,2.679,5.557,5.953c0,3.373-2.48,5.854-5.557,5.854
		C369.371,382.351,366.891,379.871,366.891,376.498z"/>
	<path fill="#FFFFFF" d="M386.535,405.071l0.893-2.778h2.282c3.373,0,11.707-0.694,16.271-1.19l-2.877,11.013l0.198,0.099
		c4.167-6.548,12.303-11.211,17.958-11.211c6.052,0,10.715,2.183,10.715,10.12c0,3.671-8.632,33.336-8.632,34.229
		c0,1.984,1.984,2.48,3.373,2.48c5.557,0,9.624-10.219,11.311-14.684l2.282,0.992c-3.274,8.136-7.738,17.66-17.462,17.66
		c-4.167,0-7.64-2.084-7.64-6.549c0-7.242,8.632-31.748,8.632-35.717c0-3.869-2.877-4.663-5.457-4.663
		c-9.227,0-16.767,12.005-20.041,25.598l-4.96,19.941h-8.731l11.707-45.34H386.535z"/>
	<path fill="#FFFFFF" d="M502.813,404.972c0,2.084-1.785,4.167-3.869,4.167c-1.785,0-3.075-0.992-4.465-2.083
		c-1.19,0.396,0,1.785-4.96,14.386c-3.175,8.135-9.922,13.989-20.438,13.989c-3.273,0-6.548-0.894-9.227-2.778
		c-2.579,0.198-6.945,3.075-6.945,5.953c0,4.663,7.938,4.762,17.958,5.556c12.601,1.091,18.255,3.175,18.255,12.799
		c0,16.271-17.263,21.033-30.458,21.033c-8.532,0-18.851-3.274-18.851-13.691c0-7.243,6.647-10.814,11.905-12.997v-0.199
		c-3.969-0.893-6.052-2.877-6.052-7.54c0-4.96,4.861-9.822,11.807-13.096c-2.084-2.084-3.671-6.052-3.671-9.227
		c0-11.807,10.715-19.942,21.43-19.942c6.647,0,11.509,4.267,14.089,10.12h0.099c1.29-4.465,3.373-11.013,8.83-11.013
		C501.028,400.11,502.813,402.193,502.813,404.972z M454.992,451.503c-5.06,3.273-7.738,6.846-7.738,13.294
		c0,1.488,0.893,9.922,13.492,9.922c8.037,0,23.812-3.075,23.812-13.989c0-5.953-4.961-6.548-9.326-7.144
		C469.775,452.793,459.854,452.693,454.992,451.503z M481.979,410.627c0-7.044-5.061-7.044-7.045-7.144
		c-11.31,0.1-12.897,20.935-12.897,22.521c0,4.465,3.571,6.846,7.54,6.846C478.406,432.752,481.979,417.969,481.979,410.627z"/>
</g>
<g>
	<g>
		<path fill="#FFFFFF" d="M27.085,308.636h10.616v-1.29H25.795c-10.913,0-19.743,8.83-19.743,19.545v88.399
			c-0.496,3.075-3.075,5.357-6.052,5.556c3.075,0.298,5.556,2.58,6.052,5.556v88.598c0,10.914,8.83,19.545,19.545,19.545h11.905
			v-1.289H26.887c-4.267,0-7.64-3.274-7.64-7.64V316.771C19.247,312.207,22.522,308.636,27.085,308.636"/>
	</g>
</g>
<g>
	<g>
		<path fill="#FFFFFF" d="M568.393,308.636c4.267,0,7.64,3.571,7.64,7.838v208.844c0,4.267-3.273,7.64-7.64,7.64h-10.615v1.29
			h11.905c10.913,0,19.545-8.83,19.545-19.545v-88.102c0.496-3.076,3.076-5.357,6.052-5.557c-3.075-0.297-5.556-2.579-6.052-5.556
			v-88.598c0-10.913-8.83-19.545-19.545-19.545h-11.905v1.29H568.393"/>
	</g>
</g>
</svg>
