<?xml version="1.0" encoding="utf-8"?>
<!-- Generator: Adobe Illustrator 16.0.0, SVG Export Plug-In . SVG Version: 6.00 Build 0)  -->
<!DOCTYPE svg PUBLIC "-//W3C//DTD SVG 1.1//EN" "http://www.w3.org/Graphics/SVG/1.1/DTD/svg11.dtd">
<svg version="1.1" id="Layer_1" xmlns="http://www.w3.org/2000/svg" xmlns:xlink="http://www.w3.org/1999/xlink" x="0px" y="0px"
	 width="595.279px" height="767.28px" viewBox="0 37.305 595.279 767.28" enable-background="new 0 37.305 595.279 767.28"
	 xml:space="preserve">
<g>
	<path fill="#FFFFFF" d="M297.806,804.585c-11.538,0-22.327-5.694-28.771-14.985L73.317,508.462
		c-42.258-50.65-65.488-115.39-65.488-182.527c0-159.151,130.077-288.629,289.828-288.629
		c159.749,0,289.678,129.479,289.678,288.629c0,48.854-12.588,97.26-36.415,140.12c-0.899,2.245-2.098,4.345-3.448,6.443
		c-7.792,12.589-15.134,23.077-22.928,32.818L326.728,789.45C320.135,798.891,309.344,804.585,297.806,804.585z M297.657,68.925
		c-142.366,0-258.207,115.242-258.207,257.009c0,59.944,20.83,117.641,58.445,162.748c0.299,0.3,0.599,0.749,0.899,1.047
		l196.164,281.737c0.601,0.898,1.8,1.498,2.847,1.498c1.201,0,2.249-0.6,2.998-1.498l198.264-284.732
		c0.149-0.3,0.45-0.6,0.599-0.899c7.194-8.992,13.938-18.582,21.281-30.421c0.15-0.299,0.3-0.602,0.451-0.75
		c0.151-0.149,0.149-0.3,0.3-0.45c0.298-0.899,0.747-1.798,1.198-2.697c21.579-38.364,32.97-81.674,32.97-125.583
		C555.866,184.167,440.023,68.925,297.657,68.925z"/>
	<path fill="#FFFFFF" d="M292.861,487.782c-89.614,0-162.446-72.681-162.446-161.848c0-89.316,72.832-161.848,162.446-161.848
		c89.617,0,162.448,72.682,162.448,161.848S382.478,487.782,292.861,487.782z M292.861,195.707
		c-72.232,0-130.826,58.445-130.826,130.228s58.744,130.228,130.826,130.228c72.233,0,130.829-58.445,130.829-130.228
		S365.094,195.707,292.861,195.707z"/>
</g>
</svg>
