<?xml version="1.0" encoding="utf-8"?>
<!-- Generator: Adobe Illustrator 19.2.0, SVG Export Plug-In . SVG Version: 6.00 Build 0)  -->
<svg version="1.1" id="Layer_1" xmlns="http://www.w3.org/2000/svg" xmlns:xlink="http://www.w3.org/1999/xlink" x="0px" y="0px"
	 viewBox="0 0 595.3 227.2" style="enable-background:new 0 0 595.3 227.2;" xml:space="preserve">
<style type="text/css">
	.st0{opacity:0.8;enable-background:new    ;}
	.st1{fill:#EC6333;}
	.st2{opacity:0.8;}
</style>
<g class="st0">
	<path class="st1" d="M117,62.3l0.9-2.8h4.7c8.6,0,11.5-0.4,14.4-0.6l-20,74.5c-0.4,1.5-1.1,3.2-1.1,4.4c0,1.6,2,2.3,3.4,2.3
		c5,0,9.5-8.1,13-15.9l2.3,0.9c-4.4,11.7-10.7,19.3-19.2,19.3c-3.8,0-7.6-2-7.6-6.4c0-1.6,0.7-4.9,1.2-6.8l18.2-69L117,62.3
		L117,62.3z"/>
	<path class="st1" d="M159.5,144.4c-12.5,0-18.9-9.6-18.9-17.8c0-16.4,14-32.9,29.4-32.9c10.3,0,17.8,9,17.8,19.3
		C187.7,127,174.3,144.4,159.5,144.4z M149.8,131.9c0,5.5,3.8,10.1,9.2,10.1c8,0,11.7-6.5,14.1-13.4c2.6-7,4.7-14.8,4.7-22.3
		c0-6.1-2.4-10.1-8.6-10.1c-7.6,0-12,6.5-14.4,13.3C153.3,113.5,149.8,127.5,149.8,131.9z"/>
	<path class="st1" d="M232.5,131.3c-4.4,6.6-10.8,13.1-19.2,13.1c-14.2,0-19.2-11.5-19.2-17.7c0-16.6,14.7-33,29.4-33
		c6.1,0,12.5,3.4,12.5,10.4c0,2.8-2.1,5.9-4.9,5.9c-2.6,0-4.9-1.7-4.9-4.4c0-4.2,3.6-5,3.6-6.6c0-2.1-4.2-2.8-5.9-2.8
		c-9.3,0-13.3,8.5-15.3,13.9c-3.3,8.8-5,15.3-5,21.5c0,6.2,3.9,9.8,9.6,9.8c8,0,12.8-5.4,17.3-11.4L232.5,131.3z"/>
	<path class="st1" d="M292.4,94.9l-11.5,41.7c-1,3.2,1,4,2.3,4c4.2,0,10.7-10.3,11.9-15.2l2.3,0.7c-4.7,13.4-11.2,18.3-16.7,18.3
		c-4.7,0-8.4-3.1-8.5-7.7h-0.2c-3.2,4.8-8.7,7.7-14,7.7c-9.6,0-15.6-7.6-15.6-18.6c0-14,15.3-32,29.1-32c4.9,0,8,3.1,9.7,7.4h0.1
		l2.1-6.1L292.4,94.9L292.4,94.9L292.4,94.9z M251.6,132.6c0,5.1,2.8,9.3,8,9.3c3.1,0,9.6-2.5,14.1-14.8c2.2-6.1,5.4-15.9,5.4-22.5
		c0-5-2.8-8.5-7.7-8.5c-6.4,0-10.1,6.1-12.8,11.4C255.4,113.8,251.6,125.5,251.6,132.6z"/>
	<path class="st1" d="M321.6,97.7l-8.8,35c-0.7,2.7-1.3,4.5-1.3,5.3c0,1.8,0.7,2.8,2.4,2.8c5.4,0,10.7-7.6,13.3-16.6l2.3,0.9
		c-2.2,9-9,19.3-18.9,19.3c-3.4,0-7.7-1.8-7.7-6.1c0-1.7,1-4.2,2-8.2l8.1-32.3h-8.2l0.9-2.8h8.2l3.6-13.3h8.7L322.6,95h9.3l-0.9,2.8
		L321.6,97.7L321.6,97.7L321.6,97.7z"/>
	<path class="st1" d="M364.8,126.4c-3.4,10.6-9.1,18-18.3,18c-3.8,0-7.6-2-7.6-6.4c0-1.6,0.7-4.9,1.2-6.8l8.7-33.5h-9.5l0.9-2.8h2.3
		c3.4,0,11.7-0.7,16.3-1.2l-10.6,39.8c-0.4,1.5-1.1,3.2-1.1,4.4c0,1.6,2,2.3,3.4,2.3c5,0,9.5-8.1,12-14.6L364.8,126.4z M353.4,69.2
		c0-3.3,2.5-6,5.6-6s5.6,2.7,5.6,6c0,3.4-2.5,5.9-5.6,5.9C355.9,75,353.4,72.5,353.4,69.2z"/>
	<path class="st1" d="M389.1,144.4c-12.5,0-18.9-9.6-18.9-17.8c0-16.4,14-32.9,29.4-32.9c10.3,0,17.8,9,17.8,19.3
		C417.3,127,403.9,144.4,389.1,144.4z M379.4,131.9c0,5.5,3.8,10.1,9.2,10.1c8,0,11.7-6.5,14.1-13.4c2.6-7,4.7-14.8,4.7-22.3
		c0-6.1-2.5-10.1-8.6-10.1c-7.6,0-12,6.5-14.4,13.3C382.9,113.5,379.4,127.5,379.4,131.9z"/>
	<path class="st1" d="M427,97.7l0.9-2.8h2.3c3.4,0,11.7-0.7,16.3-1.2l-2.9,11l0.2,0.1c4.2-6.5,12.3-11.2,18-11.2
		c6.1,0,10.7,2.2,10.7,10.1c0,3.7-8.6,33.3-8.6,34.2c0,2,2,2.5,3.4,2.5c5.6,0,9.6-10.2,11.3-14.7l2.3,1c-3.3,8.1-7.7,17.7-17.5,17.7
		c-4.2,0-7.6-2.1-7.6-6.5c0-7.2,8.6-31.7,8.6-35.7c0-3.9-2.9-4.7-5.5-4.7c-9.2,0-16.8,12-20,25.6l-5,19.9h-8.7l11.7-45.3H427z"/>
</g>
<g class="st2">
	<g>
		<path class="st1" d="M27.1,1.3h10.6V0H25.8C14.9,0,6.1,8.8,6.1,19.5v88.4C5.6,111,3,113.3,0,113.5c3.1,0.3,5.6,2.6,6.1,5.6v88.6
			c0,10.9,8.8,19.5,19.5,19.5h11.9v-1.3H26.9c-4.3,0-7.6-3.3-7.6-7.6V9.4C19.2,4.9,22.5,1.3,27.1,1.3"/>
	</g>
</g>
<g class="st2">
	<g>
		<path class="st1" d="M568.4,1.3c4.3,0,7.6,3.6,7.6,7.8V218c0,4.3-3.3,7.6-7.6,7.6h-10.6v1.3h11.9c10.9,0,19.5-8.8,19.5-19.5v-88.1
			c0.5-3.1,3.1-5.4,6.1-5.6c-3.1-0.3-5.6-2.6-6.1-5.6V19.5c0-10.9-8.8-19.5-19.5-19.5h-11.9v1.3L568.4,1.3"/>
	</g>
</g>
</svg>
