<?xml version="1.0" encoding="utf-8"?>
<!-- Generator: Adobe Illustrator 16.0.0, SVG Export Plug-In . SVG Version: 6.00 Build 0)  -->
<!DOCTYPE svg PUBLIC "-//W3C//DTD SVG 1.1//EN" "http://www.w3.org/Graphics/SVG/1.1/DTD/svg11.dtd">
<svg version="1.1" id="Layer_1" xmlns="http://www.w3.org/2000/svg" xmlns:xlink="http://www.w3.org/1999/xlink" x="0px" y="0px"
	 width="595.279px" height="329.417px" viewBox="0 1 595.279 329.417" enable-background="new 0 1 595.279 329.417"
	 xml:space="preserve">
<g>
	<path fill="#FFFFFF" d="M48.459,82.427c0-23.833,10.46-36.543,29.79-36.543c19.199,0,29.658,12.843,29.658,36.543V248.99
		c0,23.832-10.459,36.675-29.658,36.675c-19.198,0-29.79-12.843-29.79-36.675V82.427z M78.249,330.417
		c48.46,0,78.25-30.717,78.25-81.03V82.03c0-50.313-29.79-81.03-78.25-81.03C29.79,1,0,31.585,0,82.03v167.489
		C0,299.832,29.79,330.417,78.249,330.417"/>
</g>
<polygon fill="#FFFFFF" points="338.552,5.634 338.552,6.164 338.42,5.634 322.929,57.006 338.552,57.006 338.552,196.425 
	337.625,196.425 280.428,5.634 226.407,5.634 226.407,325.915 272.219,325.915 272.219,113.542 273.146,113.542 336.698,325.915 
	384.364,325.915 384.364,5.634 "/>
<polygon fill="#FFFFFF" points="458.906,5.634 458.906,325.915 595.28,325.915 595.28,281.031 507.365,281.031 507.365,185.833 
	578.332,185.833 578.332,140.949 507.365,140.949 507.365,50.386 595.28,50.386 595.28,5.634 "/>
</svg>
