<?xml version="1.0" encoding="utf-8"?>
<!-- Generator: Adobe Illustrator 19.2.0, SVG Export Plug-In . SVG Version: 6.00 Build 0)  -->
<svg version="1.1" id="bouton_rdv_1_" xmlns="http://www.w3.org/2000/svg" xmlns:xlink="http://www.w3.org/1999/xlink" x="0px"
	 y="0px" viewBox="0 0 595.3 420.2" style="enable-background:new 0 0 595.3 420.2;" xml:space="preserve">
<style type="text/css">
	.st0{fill:#FFFFFF;}
</style>
<g id="bkg_copie_xA0_Image_1_">
</g>
<g id="Prendre_un">
	<g>
		<path class="st0" d="M191.2,101.9l0.4-1.1h2.8l7.7-30.5h-3.9l0.4-1.1h11.9c7,0,10.9,2.8,10.9,7.7c0,3.5-1.8,9.8-14.7,9.8h-4.2
			l-3.5,14h3.9l-0.4,1H191.2z M202.7,85.8c3.2,0,4.6,0,6-0.4c4.9-0.4,7.7-5.6,7.7-10.2c0-3.9-2.8-4.9-6.3-4.9h-3.5L202.7,85.8z"/>
		<path class="st0" d="M226.6,83.7h-3.9l0.4-1.1h1.1c1.4,0,4.6-0.4,6.7-0.4l-1.4,4.9l0,0c1.1-2.1,3.5-4.9,6-4.9
			c1.1,0,2.1,0.7,2.1,2.1c0,1-1.1,2.1-2.1,2.1c-1.4,0-2.1-1.4-2.8-1.4c-1.1,0-3.9,3.5-4.9,8.1l-2.5,9.1h-3.5L226.6,83.7z"/>
		<path class="st0" d="M252.8,97c-1.8,3.5-3.9,5.6-7.7,5.6c-4.2,0-7.4-3.9-7.4-7.7c0-6.3,6-12.6,11.9-12.6c2.8,0,4.6,1.8,4.6,3.9
			c0,3.2-3.2,6.3-12.3,6.3c-0.4,1.4-0.7,2.8-0.7,4.2c0,2.5,1.1,4.6,3.9,4.6c3.5,0,4.9-2.1,6.7-4.9L252.8,97z M250.7,85.4
			c0-1-1.1-2.1-2.1-2.1c-3.5,0-5.6,5.6-6.3,8.4C248.3,91.4,250.7,88.6,250.7,85.4z"/>
		<path class="st0" d="M258.1,83.7l0.4-1.1h0.7c1.4,0,4.6-0.4,6.7-0.4l-1,4.6l0,0c1.8-2.8,4.9-4.6,7.4-4.6s4.2,1.1,4.2,4.2
			c0,1.4-3.5,13.3-3.5,13.7c0,0.7,0.7,1.1,1.4,1.1c2.1,0,3.9-4.2,4.6-6l1,0.4c-1.4,3.2-3.2,7-7,7c-1.8,0-3.2-0.7-3.2-2.8
			c0-2.8,3.5-13,3.5-14.4c0-1.4-1-1.8-2.1-1.8c-3.9,0-6.7,4.9-8.1,10.5l-2.1,8.1h-3.5l4.6-18.2h-3.9L258.1,83.7L258.1,83.7z"/>
		<path class="st0" d="M303.9,94.9c-1.4,3.5-3.2,7.7-7.4,7.7c-1.8,0-2.8-1.4-2.8-3.2l0,0c-1.4,1.8-3.5,3.2-5.6,3.2
			c-4.2,0-6.3-3.9-6.3-6.7c0-6,5.6-13.7,11.6-13.7c1.8,0,3.2,0.7,4.2,2.1l3.9-14.7h-4.2l0.4-1h1.8c3.5,0,4.6,0,6-0.4l-8.1,30.8
			c0,0.4,0,0.7,0,0.7c0,0.7,0.7,1.1,1.4,1.1c2.1,0,4.2-4.6,4.9-6.3L303.9,94.9z M285,98c0,2.1,1.4,3.9,3.5,3.9c2.5,0,4.2-1.8,6-7.7
			c0.7-1.8,1.8-5.6,1.8-7.7s-1.1-3.5-3.2-3.5c-3.9,0-5.6,4.9-6.7,8.1C286.1,93.1,285,95.9,285,98z"/>
		<path class="st0" d="M310.6,83.7h-3.9l0.4-1.1h1.1c1.4,0,4.6-0.4,6.7-0.4l-1.4,4.9l0,0c1-2.1,3.5-4.9,6-4.9c1.1,0,2.1,0.7,2.1,2.1
			c0,1-1.1,2.1-2.1,2.1c-1.4,0-2.1-1.4-2.8-1.4c-1.1,0-3.9,3.5-4.9,8.1l-2.5,9.1h-3.5L310.6,83.7z"/>
		<path class="st0" d="M336.5,97c-1.8,3.5-3.9,5.6-7.7,5.6c-4.2,0-7.4-3.9-7.4-7.7c0-6.3,6-12.6,11.9-12.6c2.8,0,4.6,1.8,4.6,3.9
			c0,3.2-3.2,6.3-12.3,6.3c-0.4,1.4-0.7,2.8-0.7,4.2c0,2.5,1.1,4.6,3.9,4.6c3.5,0,4.9-2.1,6.7-4.9L336.5,97z M334.8,85.4
			c0-1-1-2.1-2.1-2.1c-3.5,0-5.6,5.6-6.3,8.4C332,91.4,334.8,88.6,334.8,85.4z"/>
		<path class="st0" d="M354,83.7l0.4-1.1h1.1c1.4,0,4.6-0.4,6.7-0.4L358.6,97c0,0.7-0.7,1.8-0.7,2.8c0,1.4,1.4,1.8,1.8,1.8
			c3.2,0,6.3-3.5,7.4-7.7l2.8-10.9h3.5l-2.1,8.4c-0.7,2.1-2.1,7.7-2.1,8.4s0.4,1.8,1.4,1.8c2.5,0,3.9-3.9,4.6-6l1,0.4
			c-1,3.5-3.2,7.4-7,7.4c-2.8,0-3.5-2.1-3.2-4.2l0,0c-1.4,2.5-4.2,4.2-7,4.2c-2.1,0-4.2-0.7-4.2-3.5c0-0.4,0.7-2.5,1.1-3.9l2.8-11.6
			H354L354,83.7L354,83.7z"/>
		<path class="st0" d="M378.5,83.7l0.4-1.1h1.1c1.4,0,4.6-0.4,6.7-0.4l-1.1,4.6l0,0c1.8-2.8,4.9-4.6,7.4-4.6s4.2,1.1,4.2,4.2
			c0,1.4-3.5,13.3-3.5,13.7c0,0.7,0.7,1.1,1.4,1.1c2.1,0,3.9-4.2,4.6-6l1,0.4c-1.4,3.2-3.2,7-7,7c-1.8,0-3.2-0.7-3.2-2.8
			c0-2.8,3.5-13,3.5-14.4c0-1.4-1-1.8-2.1-1.8c-3.9,0-6.7,4.9-8.1,10.5l-2.1,8.1h-3.5l4.6-18.2h-4.2L378.5,83.7L378.5,83.7z"/>
	</g>
</g>
<g id="RDV">
	<g>
		<path class="st0" d="M223.1,265.8h-8.8v51.8h-18.6V195h27c20,0,30.8,10.9,30.8,31.2v8.8c0,13-4.6,22.1-13.3,27l17.2,56h-19.6
			L223.1,265.8z M214.3,248.6h7.4c9.1,0,13-4.9,13-15.1v-6.3c0-10.5-3.9-15.1-13-15.1h-7.4V248.6z"/>
		<path class="st0" d="M297.3,195c20,0,30.8,10.9,30.8,31.2v60.6c0,20.3-10.9,31.2-30.8,31.2h-26.6V195.4h26.6V195z M289.2,300.4
			h7.4c9.1,0,13-4.6,13-15.1v-58.1c0-10.5-3.9-15.1-13-15.1h-7.4V300.4z"/>
		<path class="st0" d="M359.3,317.6L338.6,195h18.9l14,93.5h0.4l13.7-93.5h18.6l-20.7,122.6L359.3,317.6L359.3,317.6z"/>
	</g>
</g>
<g id="Rectangle_1">
	<g>
		<rect x="175.1" y="136.6" class="st0" width="245.1" height="3.5"/>
	</g>
</g>
</svg>
