<?xml version="1.0" encoding="utf-8"?>
<!-- Generator: Adobe Illustrator 16.0.0, SVG Export Plug-In . SVG Version: 6.00 Build 0)  -->
<!DOCTYPE svg PUBLIC "-//W3C//DTD SVG 1.1//EN" "http://www.w3.org/Graphics/SVG/1.1/DTD/svg11.dtd">
<svg version="1.1" id="Layer_1" xmlns="http://www.w3.org/2000/svg" xmlns:xlink="http://www.w3.org/1999/xlink" x="0px" y="0px"
	 width="595.279px" height="477.741px" viewBox="0 182.075 595.279 477.741" enable-background="new 0 182.075 595.279 477.741"
	 xml:space="preserve">
<g>
	<path fill="#EB6332" d="M582.281,408.848V223.06c0-22.569-18.236-40.985-40.985-40.985h-25.097v2.889c0.181,0,22.208,0,22.388,0
		c9.028,0,16.25,7.222,16.25,16.25v439.283c0,9.028-7.222,16.25-16.25,16.25c-0.18,0-22.207,0-22.388,0v2.889h25.097
		c22.568,0,40.985-18.416,40.985-40.985V433.042c0.902-6.5,6.319-11.556,12.999-12.097
		C588.6,420.403,583.183,415.348,582.281,408.848"/>
	<path fill="#EB6332" d="M12.999,223.06v185.788c-0.902,6.5-6.318,11.556-12.999,12.098c6.681,0.541,11.916,5.597,12.999,12.097
		V618.83c0,22.569,18.236,40.985,40.985,40.985h25.098v-2.889c-0.181,0-22.208,0-22.389,0c-9.028,0-16.25-7.223-16.25-16.25V201.213
		c0-9.028,7.222-16.25,16.25-16.25c0.181,0,22.208,0,22.389,0v-2.889H53.805C31.236,182.075,12.999,200.311,12.999,223.06"/>
	<path fill="#EB6332" d="M243.745,225.227h3.069l-13,61.207h-9.027l-0.542,2.528h31.235l0.542-2.528h-9.569l12.819-61.207h4.152
		c7.765,0,10.834,2.889,10.834,18.777h2.889l3.069-21.305H225.69l-4.694,20.222h2.89
		C230.745,229.379,235.44,225.227,243.745,225.227"/>
	<path fill="#EB6332" d="M292.133,288.961l4.875-20.763c0.723-3.431,2.708-6.861,5.236-9.569c1.625-1.806,5.597-5.417,8.305-5.417
		c5.056,0,4.875,2.528,3.069,9.931l-3.43,14.444c-0.723,2.889-1.265,5.777-1.265,7.042c0,4.152,4.153,5.777,7.584,5.777
		c3.791,0,8.847-3.611,11.555-7.042c1.806-2.347,3.431-5.055,4.514-7.944l-2.166-0.722c-1.444,3.25-5.417,10.833-9.389,10.833
		c-1.265,0-1.806-0.723-1.806-1.806c0-0.361,0.541-3.069,1.264-5.778l3.431-13.902c0.722-2.708,1.264-5.597,1.264-6.861
		c0-5.417-4.152-7.944-9.027-7.944c-7.223,0-12.097,4.694-16.791,9.569l8.485-37.374l-18.416,0.722l-0.723,2.528h7.944
		l-14.624,64.457h10.11V288.961z"/>
	<path fill="#EB6332" d="M360.742,251.587c3.792,0,5.417,2.889,5.417,6.5c0,8.847-5.597,11.736-13.541,11.736h-3.611
		C350.993,263.684,352.076,251.587,360.742,251.587 M371.215,277.948c-3.431,5.778-9.027,9.93-16.069,9.93
		c-4.333,0-8.306-2.347-8.306-7.042c0-3.069,0.361-5.958,1.444-8.667h7.403c5.958,0,9.027-0.542,11.735-1.986
		c3.973-2.347,7.403-5.236,7.403-10.111c0-7.583-6.861-10.833-13.542-10.833c-13,0-24.555,12.639-24.555,25.277
		c0,8.666,7.764,16.069,16.249,16.069c9.209,0,15.708-3.431,20.223-11.555L371.215,277.948z"/>
	<path fill="#EB6332" d="M150.219,593.553h-1.985l2.708-13.181h4.152c1.986,0,3.611,1.084,3.25,4.694
		C157.442,593.011,154.733,593.553,150.219,593.553 M154.553,579.289h-12.639l-0.181,1.084h3.972l-5.416,26.18h-2.528l-0.181,1.083
		h11.736l0.181-1.083h-3.973l2.528-11.917h2.527c9.208,0,13.361-3.61,13.361-8.124C163.761,580.914,159.247,579.289,154.553,579.289
		"/>
	<path fill="#EB6332" d="M180.01,590.664c-2.527,0-4.874,2.167-6.139,4.152l0,0l0.903-3.972c-1.264,0-2.528,0.181-3.973,0.181
		h-3.972l-0.361,1.083h3.431l-3.431,15.708h4.333l1.625-7.402c0.181-1.084,0.723-2.709,1.264-3.792
		c0.723-1.083,2.348-3.611,3.611-3.611c0.723,0,0.903,0.542,1.264,1.084c0.361,0.541,0.723,1.083,1.806,1.083
		c1.264,0,2.167-0.722,2.167-1.986C182.9,591.387,181.635,590.664,180.01,590.664"/>
	<path fill="#EB6332" d="M189.219,582.358c0,1.264,1.083,2.528,2.347,2.528s2.527-1.084,2.527-2.528
		c0-1.264-1.264-2.347-2.527-2.347S189.219,581.095,189.219,582.358"/>
	<path fill="#EB6332" d="M190.121,606.372c-0.542,0-0.902-0.361-0.902-0.902c0-0.542,0.36-1.625,0.541-2.528l2.889-12.277
		c-0.541,0-1.264,0-1.985,0c-0.723,0-1.265,0-1.986,0h-3.973l-0.36,1.083h3.431l-2.528,10.833c-0.181,1.084-0.361,2.167-0.361,2.528
		c0,1.986,1.444,2.708,3.069,2.889c1.444,0.181,3.069-0.542,4.153-1.625c1.264-1.444,2.166-2.889,2.889-4.514l-0.902-0.361
		C193.371,603.122,191.927,606.372,190.121,606.372"/>
	<path fill="#EB6332" d="M212.149,590.664c-0.902,0-1.986,0.902-1.986,1.806c0,1.806,1.084,1.986,2.709,2.347
		c0.18,0.361,0.18,0.181,0.18,0.542c0,1.806-0.902,4.152-1.625,5.777c-1.985,4.153-4.694,5.598-6.139,5.598
		c-1.264,0-2.347-0.723-1.625-3.792l1.444-6.5c0.361-1.625,0.542-2.527,0.542-3.069c0-1.806-1.625-2.708-3.25-2.708
		c-3.25,0-5.235,3.611-6.681,6.139l0.903,0.361c0.542-0.903,2.527-4.514,3.791-4.514c0.723,0,1.084,0.541,0.723,2.166l-1.986,7.584
		c-0.181,0.722-0.36,1.264-0.36,1.805c0,2.709,2.347,3.973,4.874,3.973c3.069,0,5.778-1.444,8.306-5.777
		c1.264-1.986,2.528-6.14,2.528-8.486C214.676,592.289,214.135,590.664,212.149,590.664"/>
	<path fill="#EB6332" d="M226.412,606.372c-0.723,0.361-1.444,0.722-2.167,0.722c-1.625,0-3.43-0.18-1.264-8.305
		c1.806-6.681,2.889-7.403,4.875-7.403s2.889,2.167,2.889,3.973C230.926,598.428,229.301,605.108,226.412,606.372 M233.995,606.372
		c-0.542,0-0.902-0.361-0.902-0.902c0-0.723,0.36-1.806,0.722-3.25l2.709-11.014h-4.153l-0.902,3.25l0,0
		c-0.361-1.986-1.806-3.792-4.153-3.792c-5.055,0-9.749,5.777-9.749,10.652c0,4.514,2.166,7.042,5.597,7.042
		c2.348,0,4.152-1.084,5.597-3.069c0.181,1.805,1.445,3.069,3.25,3.069c3.25,0,5.598-3.431,6.681-6.319l-0.902-0.361
		C237.426,602.941,235.44,606.372,233.995,606.372"/>
	<path fill="#EB6332" d="M250.607,586.331c-1.444,0.36-2.89,0.722-4.334,0.722l-1.083,4.153h-3.069l-0.361,1.264h3.069l-2.166,9.931
		c-0.361,1.444-0.542,2.889-0.542,3.249c0,1.806,1.625,2.709,3.25,2.709c2.347,0,5.056-1.265,6.681-5.958l-0.903-0.181
		c-0.541,1.444-2.347,4.874-3.972,4.874c-0.542,0-0.903-0.36-0.903-0.902c0-0.361,0.181-1.625,0.542-2.889l2.527-10.472h3.611
		l0.361-1.265h-3.611L250.607,586.331z"/>
	<path fill="#EB6332" d="M265.231,591.747c1.625,0,2.348,1.264,2.348,2.709c0,3.791-2.348,5.055-5.778,5.055h-1.624
		C261.078,596.803,261.62,591.747,265.231,591.747 M263.065,600.595c2.527,0,3.791-0.181,5.055-0.903
		c1.806-0.902,3.25-2.166,3.25-4.333c0-3.25-2.889-4.694-5.777-4.694c-5.597,0-10.472,5.417-10.472,10.833
		c0,3.792,3.431,6.861,7.041,6.861c3.973,0,6.681-1.444,8.667-4.875l-0.903-0.361c-1.444,2.527-3.791,4.333-6.86,4.333
		c-1.806,0-3.431-1.083-3.431-3.069c0-1.264,0.181-2.527,0.542-3.61h2.889V600.595z"/>
	<path fill="#EB6332" d="M304.772,599.15c-1.625,3.972-3.25,8.124-8.125,8.124c-3.43,0-5.416-1.444-5.416-6.319
		c0-6.86,2.708-15.347,4.875-18.055c1.444-1.986,3.25-3.069,5.777-3.069c4.152,0,5.235,2.708,5.235,6.319
		C307.299,589.762,306.216,595.72,304.772,599.15 M312.897,590.122c0-5.958-4.514-11.374-10.833-11.374
		c-2.348,0-4.694,0.902-6.861,2.347c-5.056,3.431-9.569,9.389-9.569,15.708c0,5.958,4.153,11.375,10.473,11.375
		c4.694,0,8.485-2.528,11.374-5.958C310.549,598.789,312.897,594.997,312.897,590.122"/>
	<path fill="#EB6332" d="M322.826,597.886l1.265-5.597h4.152l0.361-1.083h-4.153l1.625-6.861c0.542-2.527,1.986-4.514,3.973-4.514
		c0.361,0,2.166,0.181,1.264,0.902c-0.361,0.361-0.902,1.084-0.722,1.625c0.18,1.264,0.722,1.986,1.985,1.986
		c1.444,0,2.348-0.723,2.348-2.167c0-2.347-2.348-3.43-4.514-3.43c-1.265,0-1.986,0.18-2.709,0.541
		c-4.514,1.986-6.319,7.583-7.583,11.917h-4.333l-0.361,1.083h4.153l-2.528,13.181c-0.541,2.166-0.902,4.514-1.444,6.86
		c-0.902,3.25-2.167,4.153-3.611,4.153c-0.36,0-1.083,0-1.083-0.542c0-0.181,0.181-0.361,0.361-0.542s0.361-0.541,0.361-1.083
		c0-1.083-1.084-1.625-1.986-1.625c-1.083,0-1.986,0.902-1.986,1.986c0,1.625,1.625,2.889,3.25,2.889c3.25,0,4.694-0.902,6.5-3.431
		c1.806-2.527,3.792-7.583,4.514-10.652C322.105,601.678,322.466,599.872,322.826,597.886"/>
	<path fill="#EB6332" d="M346.659,606.372c-0.541,0-0.902-0.361-0.902-0.902c0-0.542,0.361-1.625,0.542-2.528l2.889-12.277
		c-1.625,0.542-3.069,0.723-4.514,0.723h-6.681l0.361-2.167c0.36-2.528,0.902-3.792,1.444-5.056
		c0.902-2.347,2.527-4.333,5.056-4.333c0.541,0,2.527,0.361,1.985,1.264c-0.541,0.181-0.902,0.902-0.902,1.444
		c0,1.083,1.083,1.806,1.986,1.806c1.264,0,2.347-0.902,2.347-2.167c0-2.527-3.431-3.43-5.416-3.43c-3.25,0-5.778,1.805-7.584,4.152
		c-0.902,1.264-2.166,3.25-3.069,6.319l-0.541,2.167h-3.973l-0.361,1.083h3.973l-2.708,13.18c-0.542,2.167-0.723,4.515-1.444,6.861
		c-0.903,3.25-2.167,4.153-3.611,4.153c-0.361,0-1.084,0-1.084-0.542c0-0.181,0.181-0.361,0.361-0.542s0.361-0.541,0.361-1.083
		c0-1.083-1.083-1.625-1.986-1.625c-1.083,0-1.985,0.902-1.985,1.986c0,1.625,1.624,2.889,3.249,2.889c3.25,0,4.695-0.903,6.5-3.431
		c1.806-2.527,3.792-7.583,4.514-10.652c0.542-1.806,0.903-3.611,1.265-5.598l1.264-5.597h6.861l-2.528,10.472
		c-0.181,1.084-0.361,2.167-0.361,2.528c0,1.985,1.444,2.708,3.069,2.889c1.444,0.181,3.069-0.542,4.153-1.625
		c1.264-1.444,2.166-2.889,2.889-4.514l-0.902-0.361C349.909,603.122,348.465,606.372,346.659,606.372"/>
	<path fill="#EB6332" d="M363.632,590.664c-5.236,0-10.653,5.056-10.653,10.472c0,4.153,2.709,7.223,6.861,7.223
		c3.792,0,6.319-1.986,8.125-5.236l-0.723-0.361c-1.444,2.167-3.791,4.514-6.68,4.514c-1.986,0-3.25-1.444-3.25-3.43
		c0-1.806,1.083-5.598,1.625-7.403c0.722-2.166,1.625-4.694,4.333-4.694c0.722,0,2.708,0.181,2.527,1.084
		c0,0.36-0.722,0.541-0.902,0.722c-0.181,0.361-0.361,0.542-0.361,1.083c0,0.903,1.083,1.806,1.986,1.806
		c1.264,0,2.347-0.722,2.347-1.985C369.048,591.566,365.979,590.664,363.632,590.664"/>
	<path fill="#EB6332" d="M381.867,591.747c1.625,0,2.348,1.264,2.348,2.709c0,3.791-2.348,5.055-5.778,5.055h-1.625
		C377.715,596.803,378.256,591.747,381.867,591.747 M379.7,600.595c2.528,0,3.792-0.181,5.056-0.903
		c1.806-0.902,3.25-2.166,3.25-4.333c0-3.25-2.889-4.694-5.777-4.694c-5.598,0-10.473,5.417-10.473,10.833
		c0,3.792,3.431,6.861,7.042,6.861c3.972,0,6.681-1.444,8.666-4.875l-0.902-0.361c-1.444,2.527-3.792,4.333-6.861,4.333
		c-1.805,0-3.43-1.083-3.43-3.069c0-1.264,0.18-2.527,0.541-3.61h2.889V600.595z"/>
	<path fill="#EB6332" d="M406.242,580.733l-0.181,1.084h3.069c2.166,0,2.347,0.902,1.625,3.43l-4.694,21.125h-4.875l-0.181,1.083
		h14.264l0.181-1.083h-5.056l5.777-26.36L406.242,580.733z"/>
	<path fill="#EB6332" d="M432.061,586.331c-1.444,0.36-2.889,0.722-4.333,0.722l-1.083,4.153h-3.069l-0.361,1.264h3.069
		l-2.167,9.931c-0.361,1.444-0.541,2.889-0.541,3.249c0,1.806,1.624,2.709,3.249,2.709c2.348,0,5.056-1.265,6.681-5.958
		l-0.902-0.181c-0.542,1.444-2.348,4.874-3.973,4.874c-0.541,0-0.902-0.36-0.902-0.902c0-0.361,0.181-1.625,0.542-2.889
		l2.527-10.472h3.611l0.36-1.265h-3.61L432.061,586.331z"/>
	<path fill="#EB6332" d="M448.852,602.761c-0.902,2.348-2.527,4.333-5.416,4.333c-1.444,0-2.527-0.902-2.527-2.347
		c0-2.167,0.722-5.417,1.444-7.583c0.722-2.167,1.805-5.598,4.694-5.598c2.166,0,3.43,1.265,3.43,3.431
		C450.477,597.345,449.574,600.775,448.852,602.761 M450.657,578.928l-0.36,1.084h3.791l-3.069,13.541
		c-0.902-1.986-2.347-3.069-4.694-3.069c-0.902,0-1.444,0-2.347,0.361c-4.153,1.083-7.765,6.319-7.765,10.472
		c0,4.153,2.528,6.861,6.5,6.861c2.528,0,4.153-1.264,5.598-3.25c0.181,1.986,0.902,3.25,2.889,3.25c3.431,0,5.597-3.25,6.681-6.139
		l-0.723-0.361c-0.541,1.264-2.527,4.514-3.972,4.514c-0.542,0-0.723-0.542-0.723-0.902l5.958-26.722L450.657,578.928z"/>
	<path fill="#EB6332" d="M162.497,382.668c0-12.819,5.777-19.861,16.068-19.861c10.473,0,16.069,6.861,16.069,19.861v90.096
		c0,12.819-5.777,19.86-16.069,19.86c-10.472,0-16.068-6.86-16.068-19.86V382.668z M178.566,516.999
		c26.181,0,42.43-16.611,42.43-43.874v-90.638c0-27.263-16.068-43.874-42.43-43.874c-26.36,0-42.43,16.611-42.43,43.874v90.638
		C136.317,500.388,152.386,516.999,178.566,516.999"/>
</g>
<polygon fill="#EB6332" points="344.313,514.471 344.313,340.96 319.577,340.96 319.577,341.322 319.577,341.141 311.091,368.946 
	319.577,368.946 319.577,444.417 319.035,444.417 288.161,340.96 258.911,340.96 258.911,514.471 283.648,514.471 283.648,399.459 
	284.189,399.459 318.674,514.471 "/>
<polygon fill="#EB6332" points="458.602,490.277 410.937,490.277 410.937,438.64 449.394,438.64 449.394,414.445 410.937,414.445 
	410.937,365.335 458.602,365.335 458.602,340.96 384.756,340.96 384.756,514.471 458.602,514.471 "/>
</svg>
